<mxfile host="Electron" agent="Mozilla/5.0 (Windows NT 10.0; Win64; x64) AppleWebKit/537.36 (KHTML, like Gecko) draw.io/28.1.2 Chrome/138.0.7204.243 Electron/37.4.0 Safari/537.36" version="28.1.2">
  <diagram name="หน้า-1" id="NcU0rl6cgLb05vqAOmys">
    <mxGraphModel dx="2084" dy="1252" grid="1" gridSize="10" guides="1" tooltips="1" connect="1" arrows="1" fold="1" page="1" pageScale="1" pageWidth="827" pageHeight="1169" math="0" shadow="0">
      <root>
        <mxCell id="0" />
        <mxCell id="1" parent="0" />
        <mxCell id="J52BEJOFF8bMMjer5tA4-1" value="เริ่มต้น (Start)" style="ellipse;whiteSpace=wrap;html=1;aspect=fixed;" vertex="1" parent="1">
          <mxGeometry x="344" y="20" width="140" height="60" as="geometry" />
        </mxCell>
        <mxCell id="J52BEJOFF8bMMjer5tA4-2" value="ประกาศตัวแปร ID, workhrs, salaryPerHr, ttSalary" style="rounded=0;whiteSpace=wrap;html=1;" vertex="1" parent="1">
          <mxGeometry x="264" y="120" width="300" height="60" as="geometry" />
        </mxCell>
        <mxCell id="J52BEJOFF8bMMjer5tA4-3" value="แสดงข้อความ &quot;Employees ID :&quot;" style="parallelogram;whiteSpace=wrap;html=1;" vertex="1" parent="1">
          <mxGeometry x="284" y="220" width="260" height="60" as="geometry" />
        </mxCell>
        <mxCell id="J52BEJOFF8bMMjer5tA4-4" value="รับค่ารหัสพนักงาน (ID)" style="parallelogram;whiteSpace=wrap;html=1;" vertex="1" parent="1">
          <mxGeometry x="284" y="320" width="260" height="60" as="geometry" />
        </mxCell>
        <mxCell id="J52BEJOFF8bMMjer5tA4-5" value="แสดงข้อความ &quot;working hrs :&quot;" style="parallelogram;whiteSpace=wrap;html=1;" vertex="1" parent="1">
          <mxGeometry x="284" y="420" width="260" height="60" as="geometry" />
        </mxCell>
        <mxCell id="J52BEJOFF8bMMjer5tA4-6" value="รับค่าจำนวนชั่วโมงทำงาน (workhrs)" style="parallelogram;whiteSpace=wrap;html=1;" vertex="1" parent="1">
          <mxGeometry x="284" y="520" width="260" height="60" as="geometry" />
        </mxCell>
        <mxCell id="J52BEJOFF8bMMjer5tA4-7" value="แสดงข้อความ &quot;Salary amount/hr :&quot;" style="parallelogram;whiteSpace=wrap;html=1;" vertex="1" parent="1">
          <mxGeometry x="284" y="620" width="260" height="60" as="geometry" />
        </mxCell>
        <mxCell id="J52BEJOFF8bMMjer5tA4-8" value="รับค่ารายได้ต่อชั่วโมง (salaryPerHr)" style="parallelogram;whiteSpace=wrap;html=1;" vertex="1" parent="1">
          <mxGeometry x="284" y="720" width="260" height="60" as="geometry" />
        </mxCell>
        <mxCell id="J52BEJOFF8bMMjer5tA4-9" value="คำนวณ ttSalary = workhrs × salaryPerHr" style="rounded=0;whiteSpace=wrap;html=1;" vertex="1" parent="1">
          <mxGeometry x="284" y="820" width="260" height="60" as="geometry" />
        </mxCell>
        <mxCell id="J52BEJOFF8bMMjer5tA4-10" value="แสดงผล Employees ID = ID" style="parallelogram;whiteSpace=wrap;html=1;" vertex="1" parent="1">
          <mxGeometry x="284" y="920" width="260" height="60" as="geometry" />
        </mxCell>
        <mxCell id="J52BEJOFF8bMMjer5tA4-11" value="แสดงผล Salary = U$ ttSalary" style="parallelogram;whiteSpace=wrap;html=1;" vertex="1" parent="1">
          <mxGeometry x="284" y="1020" width="260" height="60" as="geometry" />
        </mxCell>
        <mxCell id="J52BEJOFF8bMMjer5tA4-12" value="สิ้นสุด (Stop)" style="ellipse;whiteSpace=wrap;html=1;aspect=fixed;" vertex="1" parent="1">
          <mxGeometry x="344" y="1130" width="140" height="60" as="geometry" />
        </mxCell>
        <mxCell id="J52BEJOFF8bMMjer5tA4-13" style="edgeStyle=orthogonalEdgeStyle;rounded=0;orthogonalLoop=1;jettySize=auto;html=1;" edge="1" parent="1" source="J52BEJOFF8bMMjer5tA4-1" target="J52BEJOFF8bMMjer5tA4-2">
          <mxGeometry relative="1" as="geometry" />
        </mxCell>
        <mxCell id="J52BEJOFF8bMMjer5tA4-14" style="edgeStyle=orthogonalEdgeStyle;rounded=0;orthogonalLoop=1;jettySize=auto;html=1;" edge="1" parent="1" source="J52BEJOFF8bMMjer5tA4-2" target="J52BEJOFF8bMMjer5tA4-3">
          <mxGeometry relative="1" as="geometry" />
        </mxCell>
        <mxCell id="J52BEJOFF8bMMjer5tA4-15" style="edgeStyle=orthogonalEdgeStyle;rounded=0;orthogonalLoop=1;jettySize=auto;html=1;" edge="1" parent="1" source="J52BEJOFF8bMMjer5tA4-3" target="J52BEJOFF8bMMjer5tA4-4">
          <mxGeometry relative="1" as="geometry" />
        </mxCell>
        <mxCell id="J52BEJOFF8bMMjer5tA4-16" style="edgeStyle=orthogonalEdgeStyle;rounded=0;orthogonalLoop=1;jettySize=auto;html=1;" edge="1" parent="1" source="J52BEJOFF8bMMjer5tA4-4" target="J52BEJOFF8bMMjer5tA4-5">
          <mxGeometry relative="1" as="geometry" />
        </mxCell>
        <mxCell id="J52BEJOFF8bMMjer5tA4-17" style="edgeStyle=orthogonalEdgeStyle;rounded=0;orthogonalLoop=1;jettySize=auto;html=1;" edge="1" parent="1" source="J52BEJOFF8bMMjer5tA4-5" target="J52BEJOFF8bMMjer5tA4-6">
          <mxGeometry relative="1" as="geometry" />
        </mxCell>
        <mxCell id="J52BEJOFF8bMMjer5tA4-18" style="edgeStyle=orthogonalEdgeStyle;rounded=0;orthogonalLoop=1;jettySize=auto;html=1;" edge="1" parent="1" source="J52BEJOFF8bMMjer5tA4-6" target="J52BEJOFF8bMMjer5tA4-7">
          <mxGeometry relative="1" as="geometry" />
        </mxCell>
        <mxCell id="J52BEJOFF8bMMjer5tA4-19" style="edgeStyle=orthogonalEdgeStyle;rounded=0;orthogonalLoop=1;jettySize=auto;html=1;" edge="1" parent="1" source="J52BEJOFF8bMMjer5tA4-7" target="J52BEJOFF8bMMjer5tA4-8">
          <mxGeometry relative="1" as="geometry" />
        </mxCell>
        <mxCell id="J52BEJOFF8bMMjer5tA4-20" style="edgeStyle=orthogonalEdgeStyle;rounded=0;orthogonalLoop=1;jettySize=auto;html=1;" edge="1" parent="1" source="J52BEJOFF8bMMjer5tA4-8" target="J52BEJOFF8bMMjer5tA4-9">
          <mxGeometry relative="1" as="geometry" />
        </mxCell>
        <mxCell id="J52BEJOFF8bMMjer5tA4-21" style="edgeStyle=orthogonalEdgeStyle;rounded=0;orthogonalLoop=1;jettySize=auto;html=1;" edge="1" parent="1" source="J52BEJOFF8bMMjer5tA4-9" target="J52BEJOFF8bMMjer5tA4-10">
          <mxGeometry relative="1" as="geometry" />
        </mxCell>
        <mxCell id="J52BEJOFF8bMMjer5tA4-22" style="edgeStyle=orthogonalEdgeStyle;rounded=0;orthogonalLoop=1;jettySize=auto;html=1;" edge="1" parent="1" source="J52BEJOFF8bMMjer5tA4-10" target="J52BEJOFF8bMMjer5tA4-11">
          <mxGeometry relative="1" as="geometry" />
        </mxCell>
        <mxCell id="J52BEJOFF8bMMjer5tA4-23" style="edgeStyle=orthogonalEdgeStyle;rounded=0;orthogonalLoop=1;jettySize=auto;html=1;" edge="1" parent="1" source="J52BEJOFF8bMMjer5tA4-11" target="J52BEJOFF8bMMjer5tA4-12">
          <mxGeometry relative="1" as="geometry" />
        </mxCell>
      </root>
    </mxGraphModel>
  </diagram>
</mxfile>
